<?xml version="1.0" encoding="UTF-8" standalone="no"?>
<!DOCTYPE svg PUBLIC "-//W3C//DTD SVG 1.1//EN"
 "http://www.w3.org/Graphics/SVG/1.1/DTD/svg11.dtd">
<!-- Generated by graphviz version 2.40.1 (20161225.0304)
 -->
<!-- Title: spu32soc Pages: 1 -->
<svg width="1047pt" height="311pt"
 viewBox="0.00 0.00 1046.50 311.00" xmlns="http://www.w3.org/2000/svg" xmlns:xlink="http://www.w3.org/1999/xlink">
<g id="graph0" class="graph" transform="scale(1 1) rotate(0) translate(4 307)">
<title>spu32soc</title>
<polygon fill="#ffffff" stroke="transparent" points="-4,4 -4,-307 1042.5,-307 1042.5,4 -4,4"/>
<!-- cpu -->
<g id="node1" class="node">
<title>cpu</title>
<polygon fill="none" stroke="#000000" points="547,-303 461,-303 461,-299 457,-299 457,-295 461,-295 461,-258 457,-258 457,-254 461,-254 461,-250 547,-250 547,-303"/>
<polyline fill="none" stroke="#000000" points="461,-299 465,-299 465,-295 461,-295 "/>
<polyline fill="none" stroke="#000000" points="461,-258 465,-258 465,-254 461,-254 "/>
<text text-anchor="middle" x="504" y="-287.8" font-family="Times,serif" font-size="14.00" fill="#000000">CPU</text>
<text text-anchor="middle" x="504" y="-272.8" font-family="Times,serif" font-size="14.00" fill="#000000">RISC&#45;V ISA</text>
<text text-anchor="middle" x="504" y="-257.8" font-family="Times,serif" font-size="14.00" fill="#000000">RV32I</text>
</g>
<!-- arbiter -->
<g id="node2" class="node">
<title>arbiter</title>
<polygon fill="none" stroke="#000000" points="1008,-214 0,-214 0,-178 1008,-178 1008,-214"/>
<text text-anchor="middle" x="504" y="-192.3" font-family="Times,serif" font-size="14.00" fill="#000000">Wishbone bus, 8&#45;bit data, 32&#45;bit address, pipelined</text>
</g>
<!-- cpu&#45;&#45;arbiter -->
<g id="edge1" class="edge">
<title>cpu&#45;&#45;arbiter</title>
<path fill="none" stroke="#000000" d="M504,-249.6947C504,-237.9859 504,-224.5623 504,-214.0658"/>
</g>
<!-- ram -->
<g id="node3" class="node">
<title>ram</title>
<polygon fill="none" stroke="#000000" points="144.5,-142 41.5,-142 41.5,-138 37.5,-138 37.5,-134 41.5,-134 41.5,-97 37.5,-97 37.5,-93 41.5,-93 41.5,-89 144.5,-89 144.5,-142"/>
<polyline fill="none" stroke="#000000" points="41.5,-138 45.5,-138 45.5,-134 41.5,-134 "/>
<polyline fill="none" stroke="#000000" points="41.5,-97 45.5,-97 45.5,-93 41.5,-93 "/>
<text text-anchor="middle" x="93" y="-126.8" font-family="Times,serif" font-size="14.00" fill="#000000">external SRAM</text>
<text text-anchor="middle" x="93" y="-111.8" font-family="Times,serif" font-size="14.00" fill="#000000">or</text>
<text text-anchor="middle" x="93" y="-96.8" font-family="Times,serif" font-size="14.00" fill="#000000">Block&#45;RAM</text>
</g>
<!-- arbiter&#45;&#45;ram -->
<g id="edge2" class="edge">
<title>arbiter&#45;&#45;ram</title>
<path fill="none" stroke="#000000" d="M93,-177.7333C93,-167.2495 93,-153.8954 93,-142.2477"/>
</g>
<!-- brom -->
<g id="node4" class="node">
<title>brom</title>
<polygon fill="none" stroke="#000000" points="340,-142 174,-142 174,-138 170,-138 170,-134 174,-134 174,-97 170,-97 170,-93 174,-93 174,-89 340,-89 340,-142"/>
<polyline fill="none" stroke="#000000" points="174,-138 178,-138 178,-134 174,-134 "/>
<polyline fill="none" stroke="#000000" points="174,-97 178,-97 178,-93 174,-93 "/>
<text text-anchor="middle" x="257" y="-126.8" font-family="Times,serif" font-size="14.00" fill="#000000">Boot&#45;ROM</text>
<text text-anchor="middle" x="257" y="-111.8" font-family="Times,serif" font-size="14.00" fill="#000000">receives from UART</text>
<text text-anchor="middle" x="257" y="-96.8" font-family="Times,serif" font-size="14.00" fill="#000000">or copies SPI&#45;data to RAM</text>
</g>
<!-- arbiter&#45;&#45;brom -->
<g id="edge3" class="edge">
<title>arbiter&#45;&#45;brom</title>
<path fill="none" stroke="#000000" d="M257,-177.7333C257,-167.2495 257,-153.8954 257,-142.2477"/>
</g>
<!-- spi -->
<g id="node5" class="node">
<title>spi</title>
<polygon fill="none" stroke="#000000" points="431,-133.5 369,-133.5 369,-129.5 365,-129.5 365,-125.5 369,-125.5 369,-105.5 365,-105.5 365,-101.5 369,-101.5 369,-97.5 431,-97.5 431,-133.5"/>
<polyline fill="none" stroke="#000000" points="369,-129.5 373,-129.5 373,-125.5 369,-125.5 "/>
<polyline fill="none" stroke="#000000" points="369,-105.5 373,-105.5 373,-101.5 369,-101.5 "/>
<text text-anchor="middle" x="400" y="-111.8" font-family="Times,serif" font-size="14.00" fill="#000000">SPI port</text>
</g>
<!-- arbiter&#45;&#45;spi -->
<g id="edge4" class="edge">
<title>arbiter&#45;&#45;spi</title>
<path fill="none" stroke="#000000" d="M400,-177.7333C400,-164.559 400,-146.8521 400,-133.6944"/>
</g>
<!-- uart -->
<g id="node6" class="node">
<title>uart</title>
<polygon fill="none" stroke="#000000" points="547.5,-134.5 460.5,-134.5 460.5,-130.5 456.5,-130.5 456.5,-126.5 460.5,-126.5 460.5,-104.5 456.5,-104.5 456.5,-100.5 460.5,-100.5 460.5,-96.5 547.5,-96.5 547.5,-134.5"/>
<polyline fill="none" stroke="#000000" points="460.5,-130.5 464.5,-130.5 464.5,-126.5 460.5,-126.5 "/>
<polyline fill="none" stroke="#000000" points="460.5,-104.5 464.5,-104.5 464.5,-100.5 460.5,-100.5 "/>
<text text-anchor="middle" x="504" y="-119.3" font-family="Times,serif" font-size="14.00" fill="#000000">UART</text>
<text text-anchor="middle" x="504" y="-104.3" font-family="Times,serif" font-size="14.00" fill="#000000">115200 baud</text>
</g>
<!-- arbiter&#45;&#45;uart -->
<g id="edge5" class="edge">
<title>arbiter&#45;&#45;uart</title>
<path fill="none" stroke="#000000" d="M504,-177.7333C504,-164.8373 504,-147.5983 504,-134.5344"/>
</g>
<!-- timer -->
<g id="node7" class="node">
<title>timer</title>
<polygon fill="none" stroke="#000000" points="717,-134.5 577,-134.5 577,-130.5 573,-130.5 573,-126.5 577,-126.5 577,-104.5 573,-104.5 573,-100.5 577,-100.5 577,-96.5 717,-96.5 717,-134.5"/>
<polyline fill="none" stroke="#000000" points="577,-130.5 581,-130.5 581,-126.5 577,-126.5 "/>
<polyline fill="none" stroke="#000000" points="577,-104.5 581,-104.5 581,-100.5 577,-100.5 "/>
<text text-anchor="middle" x="647" y="-119.3" font-family="Times,serif" font-size="14.00" fill="#000000">Timer</text>
<text text-anchor="middle" x="647" y="-104.3" font-family="Times,serif" font-size="14.00" fill="#000000">can generate interrupts</text>
</g>
<!-- arbiter&#45;&#45;timer -->
<g id="edge6" class="edge">
<title>arbiter&#45;&#45;timer</title>
<path fill="none" stroke="#000000" d="M647,-177.7333C647,-164.8373 647,-147.5983 647,-134.5344"/>
</g>
<!-- prng -->
<g id="node8" class="node">
<title>prng</title>
<polygon fill="none" stroke="#000000" points="924,-134.5 746,-134.5 746,-130.5 742,-130.5 742,-126.5 746,-126.5 746,-104.5 742,-104.5 742,-100.5 746,-100.5 746,-96.5 924,-96.5 924,-134.5"/>
<polyline fill="none" stroke="#000000" points="746,-130.5 750,-130.5 750,-126.5 746,-126.5 "/>
<polyline fill="none" stroke="#000000" points="746,-104.5 750,-104.5 750,-100.5 746,-100.5 "/>
<text text-anchor="middle" x="835" y="-119.3" font-family="Times,serif" font-size="14.00" fill="#000000">PRNG</text>
<text text-anchor="middle" x="835" y="-104.3" font-family="Times,serif" font-size="14.00" fill="#000000">predictable &#39;random&#39; numbers</text>
</g>
<!-- arbiter&#45;&#45;prng -->
<g id="edge7" class="edge">
<title>arbiter&#45;&#45;prng</title>
<path fill="none" stroke="#000000" d="M835,-177.7333C835,-164.8373 835,-147.5983 835,-134.5344"/>
</g>
<!-- leds -->
<g id="node9" class="node">
<title>leds</title>
<polygon fill="none" stroke="#000000" points="1038.5,-133.5 953.5,-133.5 953.5,-129.5 949.5,-129.5 949.5,-125.5 953.5,-125.5 953.5,-105.5 949.5,-105.5 949.5,-101.5 953.5,-101.5 953.5,-97.5 1038.5,-97.5 1038.5,-133.5"/>
<polyline fill="none" stroke="#000000" points="953.5,-129.5 957.5,-129.5 957.5,-125.5 953.5,-125.5 "/>
<polyline fill="none" stroke="#000000" points="953.5,-105.5 957.5,-105.5 957.5,-101.5 953.5,-101.5 "/>
<text text-anchor="middle" x="996" y="-111.8" font-family="Times,serif" font-size="14.00" fill="#000000">Board LEDs</text>
</g>
<!-- arbiter&#45;&#45;leds -->
<g id="edge8" class="edge">
<title>arbiter&#45;&#45;leds</title>
<path fill="none" stroke="#000000" d="M980.75,-177.7333C980.75,-164.559 980.75,-146.8521 980.75,-133.6944"/>
</g>
<!-- spiflash -->
<g id="node10" class="node">
<title>spiflash</title>
<polygon fill="none" stroke="#000000" points="515,-53 285,-53 285,-49 281,-49 281,-45 285,-45 285,-8 281,-8 281,-4 285,-4 285,0 515,0 515,-53"/>
<polyline fill="none" stroke="#000000" points="285,-49 289,-49 289,-45 285,-45 "/>
<polyline fill="none" stroke="#000000" points="285,-8 289,-8 289,-4 285,-4 "/>
<text text-anchor="middle" x="400" y="-37.8" font-family="Times,serif" font-size="14.00" fill="#000000">SPI&#45;EEPROM/Flash device</text>
<text text-anchor="middle" x="400" y="-22.8" font-family="Times,serif" font-size="14.00" fill="#000000">contains initial RAM contents</text>
<text text-anchor="middle" x="400" y="-7.8" font-family="Times,serif" font-size="14.00" fill="#000000">programmable via Boot&#45;ROM routines</text>
</g>
<!-- spi&#45;&#45;spiflash -->
<g id="edge9" class="edge">
<title>spi&#45;&#45;spiflash</title>
<path fill="none" stroke="#000000" d="M400,-97.4895C400,-84.7912 400,-67.5684 400,-53.267"/>
</g>
</g>
</svg>
